<svg width="30" height="25" viewBox="0 0 30 25" fill="none" xmlns="http://www.w3.org/2000/svg">
<g id="iconamoon:comment-fill">
<g id="Vector">
<mask id="path-1-inside-1_3012_189" fill="white">
<path fill-rule="evenodd" clip-rule="evenodd" d="M15 2.08356C8.09626 2.08356 2.50001 6.7471 2.50001 12.5002C2.49771 14.0351 2.9037 15.5513 3.68876 16.9398L2.52626 21.6659C2.48487 21.8346 2.49434 22.0093 2.55381 22.1742C2.61329 22.3392 2.72091 22.4892 2.86706 22.611C3.0132 22.7328 3.1933 22.8225 3.39124 22.8721C3.58917 22.9216 3.79877 22.9295 4.00126 22.895L9.67251 21.9263C11.29 22.5617 13.0975 22.9159 15 22.9159C21.9038 22.9159 27.5 18.2534 27.5 12.4992C27.5 6.7471 21.9038 2.08252 15 2.08252"/>
</mask>
<path fill-rule="evenodd" clip-rule="evenodd" d="M15 2.08356C8.09626 2.08356 2.50001 6.7471 2.50001 12.5002C2.49771 14.0351 2.9037 15.5513 3.68876 16.9398L2.52626 21.6659C2.48487 21.8346 2.49434 22.0093 2.55381 22.1742C2.61329 22.3392 2.72091 22.4892 2.86706 22.611C3.0132 22.7328 3.1933 22.8225 3.39124 22.8721C3.58917 22.9216 3.79877 22.9295 4.00126 22.895L9.67251 21.9263C11.29 22.5617 13.0975 22.9159 15 22.9159C21.9038 22.9159 27.5 18.2534 27.5 12.4992C27.5 6.7471 21.9038 2.08252 15 2.08252" fill="white"/>
<path d="M2.50001 12.5002L3.50001 12.5017V12.5002H2.50001ZM3.68876 16.9398L4.65981 17.1787L4.75463 16.7932L4.55925 16.4476L3.68876 16.9398ZM2.52626 21.6659L1.5552 21.427L1.55505 21.4276L2.52626 21.6659ZM4.00126 22.895L4.16917 23.8808L4.16964 23.8807L4.00126 22.895ZM9.67251 21.9263L10.0381 20.9955L9.7788 20.8936L9.50413 20.9405L9.67251 21.9263ZM15 1.08356C7.72243 1.08356 1.50001 6.03185 1.50001 12.5002H3.50001C3.50001 7.46236 8.47008 3.08356 15 3.08356V1.08356ZM1.50001 12.4987C1.49744 14.2135 1.95154 15.8991 2.81827 17.432L4.55925 16.4476C3.85585 15.2036 3.49798 13.8567 3.50001 12.5017L1.50001 12.4987ZM2.7177 16.701L1.5552 21.427L3.49731 21.9047L4.65981 17.1787L2.7177 16.701ZM1.55505 21.4276C1.46629 21.7895 1.48747 22.165 1.61309 22.5134L3.49453 21.835C3.49739 21.843 3.50003 21.854 3.50075 21.8673C3.50147 21.8807 3.50011 21.8933 3.49747 21.9041L1.55505 21.4276ZM1.61309 22.5134C1.73792 22.8596 1.95618 23.1537 2.22687 23.3792L3.50724 21.8428C3.48564 21.8248 3.48865 21.8187 3.49453 21.835L1.61309 22.5134ZM2.22687 23.3792C2.49684 23.6042 2.81529 23.7587 3.14834 23.8421L3.63413 21.902C3.57131 21.8863 3.52956 21.8614 3.50724 21.8428L2.22687 23.3792ZM3.14834 23.8421C3.48157 23.9256 3.83107 23.9384 4.16917 23.8808L3.83335 21.9092C3.76646 21.9206 3.69678 21.9177 3.63413 21.902L3.14834 23.8421ZM4.16964 23.8807L9.84089 22.912L9.50413 20.9405L3.83288 21.9093L4.16964 23.8807ZM9.30687 22.857C11.0421 23.5387 12.9737 23.9159 15 23.9159V21.9159C13.2213 21.9159 11.5379 21.5847 10.0381 20.9955L9.30687 22.857ZM15 23.9159C22.2775 23.9159 28.5 18.9687 28.5 12.4992H26.5C26.5 17.538 21.53 21.9159 15 21.9159V23.9159ZM28.5 12.4992C28.5 6.0319 22.2777 1.08252 15 1.08252V3.08252C21.5299 3.08252 26.5 7.4623 26.5 12.4992H28.5Z" fill="black" mask="url(#path-1-inside-1_3012_189)"/>
</g>
</g>
</svg>
