<svg width="25" height="30" viewBox="0 0 25 30" fill="none" xmlns="http://www.w3.org/2000/svg">
<g id="mdi:like">
<path id="Vector" d="M14.799 9.91378L14.6964 10.5H15.2915H21.8748C22.2623 10.5 22.6569 10.684 22.9639 11.0523C23.273 11.4233 23.4582 11.9431 23.4582 12.5V15C23.4582 15.2672 23.416 15.513 23.339 15.7512L20.1956 24.5569L20.1956 24.5569L20.1942 24.561C19.9341 25.31 19.3529 25.75 18.7498 25.75H9.37484C8.98739 25.75 8.59275 25.566 8.28581 25.1977C7.97665 24.8267 7.7915 24.3069 7.7915 23.75V11.25C7.7915 10.6728 7.98383 10.1627 8.2902 9.79509L14.7621 2.02884L15.4803 2.88259C15.4805 2.88287 15.4808 2.88315 15.481 2.88344C15.6834 3.12675 15.8228 3.48669 15.8228 3.8875C15.8228 4.00033 15.8142 4.10939 15.7986 4.20348L14.799 9.91378ZM4.70817 11.75V25.75H1.5415V11.75H4.70817Z" fill="#ED7F38" stroke="black"/>
</g>
</svg>
