<svg width="50" height="50" viewBox="0 0 50 50" fill="none" xmlns="http://www.w3.org/2000/svg">
<g id="icon-park:collect-picture">
<g id="Group">
<path id="Vector" d="M45.8337 21.8748C45.8337 20.7242 44.9009 19.7915 43.7503 19.7915C42.5997 19.7915 41.667 20.7242 41.667 21.8748H45.8337ZM23.9587 8.33317C25.1093 8.33317 26.042 7.40043 26.042 6.24984C26.042 5.09924 25.1093 4.1665 23.9587 4.1665V8.33317ZM40.6253 41.6665H9.37533V45.8332H40.6253V41.6665ZM8.33366 40.6248V9.37484H4.16699V40.6248H8.33366ZM41.667 21.8748V40.6248H45.8337V21.8748H41.667ZM9.37533 8.33317H23.9587V4.1665H9.37533V8.33317ZM9.37533 41.6665C8.80003 41.6665 8.33366 41.2001 8.33366 40.6248H4.16699C4.16699 43.5013 6.49884 45.8332 9.37533 45.8332V41.6665ZM40.6253 45.8332C43.5018 45.8332 45.8337 43.5013 45.8337 40.6248H41.667C41.667 41.2001 41.2006 41.6665 40.6253 41.6665V45.8332ZM8.33366 9.37484C8.33366 8.79955 8.80002 8.33317 9.37533 8.33317V4.1665C6.49885 4.1665 4.16699 6.49835 4.16699 9.37484H8.33366Z" fill="black"/>
<path id="Vector_2" d="M6.25 36.4582L17.3886 26.2478C18.1655 25.5356 19.352 25.5158 20.1522 26.2018L33.3333 37.4999" stroke="black" stroke-width="3" stroke-linecap="round" stroke-linejoin="round"/>
<path id="Vector_3" d="M29.167 32.2915L34.1394 27.3191C34.8724 26.5861 36.033 26.5036 36.8625 27.1257L43.7503 32.2915" stroke="black" stroke-width="3" stroke-linecap="round" stroke-linejoin="round"/>
<path id="Vector_4" d="M34.6875 6.25C32.7891 6.25 31.25 7.74451 31.25 9.58807C31.25 12.9261 35.3125 15.9607 37.5 16.6667C39.6875 15.9607 43.75 12.9261 43.75 9.58807C43.75 7.74451 42.2109 6.25 40.3125 6.25C39.1499 6.25 38.1221 6.81046 37.5 7.66833C36.8779 6.81046 35.8501 6.25 34.6875 6.25Z" fill="#E16315" stroke="black" stroke-width="2" stroke-linecap="round" stroke-linejoin="round"/>
</g>
</g>
</svg>
