<svg width="41" height="39" viewBox="0 0 41 39" fill="none" xmlns="http://www.w3.org/2000/svg">
<path d="M20.1724 35.6C22.6715 35.6022 25.1393 35.0586 27.3918 34.0092C29.6445 32.9598 31.6243 31.4311 33.1825 29.5364L33.5272 29.1172L33.0813 28.8079C29.7315 26.4847 25.1707 24.85 20.1724 24.85C15.1742 24.85 10.6134 26.4847 7.26357 28.8079L6.81762 29.1172L7.16233 29.5364C8.72054 31.4311 10.7003 32.9598 12.953 34.0092C15.2055 35.0586 17.6734 35.6022 20.1724 35.6ZM20.1724 35.6C20.1726 35.6 20.1727 35.6 20.1729 35.6L20.1724 35.1L20.172 35.6C20.1721 35.6 20.1723 35.6 20.1724 35.6ZM0.5 19.5C0.5 9.02213 9.29122 0.5 20.1724 0.5C31.0536 0.5 39.8448 9.02213 39.8448 19.5C39.8448 29.9779 31.0536 38.5 20.1724 38.5C9.29122 38.5 0.5 29.9779 0.5 19.5ZM13.1899 11.8163C12.8086 12.7062 12.6121 13.6607 12.6121 14.625C12.6121 16.5733 13.4129 18.4382 14.8325 19.8105C16.2515 21.1822 18.1727 21.95 20.1724 21.95C22.1722 21.95 24.0933 21.1822 25.5123 19.8105C26.932 18.4382 27.7328 16.5733 27.7328 14.625C27.7328 13.6607 27.5362 12.7062 27.1549 11.8163C26.7736 10.9263 26.2151 10.1189 25.5123 9.4395C24.8096 8.76016 23.9762 8.22213 23.0601 7.85535C22.1441 7.48858 21.1629 7.3 20.1724 7.3C19.1819 7.3 18.2007 7.48858 17.2847 7.85535C16.3687 8.22213 15.5353 8.76016 14.8325 9.4395C14.1297 10.1189 13.5712 10.9263 13.1899 11.8163Z" fill="#210D9B" stroke="black"/>
</svg>
