<svg width="40" height="40" viewBox="0 0 40 40" fill="none" xmlns="http://www.w3.org/2000/svg">
<path id="Vector" d="M20 36.5C22.481 36.5023 24.9304 35.944 27.1654 34.8668C29.4005 33.7896 31.3634 32.2214 32.9074 30.2791L33.2343 29.868L32.8075 29.5617C29.4855 27.1784 24.9605 25.5 20 25.5C15.0395 25.5 10.5145 27.1784 7.19253 29.5617L6.76572 29.868L7.09261 30.2791C8.63661 32.2214 10.5995 33.7896 12.8346 34.8668C15.0696 35.944 17.519 36.5023 20 36.5ZM20 36.5C20.0002 36.5 20.0003 36.5 20.0005 36.5L20 36L19.9995 36.5C19.9997 36.5 19.9998 36.5 20 36.5ZM0.5 20C0.5 9.23014 9.23014 0.5 20 0.5C30.7699 0.5 39.5 9.23014 39.5 20C39.5 30.7699 30.7699 39.5 20 39.5C9.23014 39.5 0.5 30.7699 0.5 20ZM13.0709 12.1299C12.694 13.0398 12.5 14.0151 12.5 15C12.5 16.9891 13.2902 18.8968 14.6967 20.3033C16.1032 21.7098 18.0109 22.5 20 22.5C21.9891 22.5 23.8968 21.7098 25.3033 20.3033C26.7098 18.8968 27.5 16.9891 27.5 15C27.5 14.0151 27.306 13.0398 26.9291 12.1299C26.5522 11.2199 25.9997 10.3931 25.3033 9.6967C24.6069 9.00026 23.7801 8.44781 22.8701 8.0709C21.9602 7.69399 20.9849 7.5 20 7.5C19.0151 7.5 18.0398 7.69399 17.1299 8.0709C16.2199 8.44781 15.3931 9.00026 14.6967 9.6967C14.0003 10.3931 13.4478 11.2199 13.0709 12.1299Z" fill="#065757" stroke="black"/>
</svg>
