<svg width="85" height="85" viewBox="0 0 85 85" fill="none" xmlns="http://www.w3.org/2000/svg">
<path id="Vector" fill-rule="evenodd" clip-rule="evenodd" d="M42.5 0C19.0273 0 0 19.0273 0 42.5C0 65.9727 19.0273 85 42.5 85C65.9727 85 85 65.9727 85 42.5C85 19.0273 65.9727 0 42.5 0ZM27.625 31.875C27.625 29.9216 28.0098 27.9873 28.7573 26.1826C29.5048 24.3779 30.6005 22.7381 31.9818 21.3568C33.3631 19.9755 35.0029 18.8798 36.8076 18.1323C38.6123 17.3848 40.5466 17 42.5 17C44.4534 17 46.3877 17.3848 48.1924 18.1323C49.9971 18.8798 51.6369 19.9755 53.0182 21.3568C54.3995 22.7381 55.4952 24.3779 56.2427 26.1826C56.9902 27.9873 57.375 29.9216 57.375 31.875C57.375 35.8201 55.8078 39.6036 53.0182 42.3932C50.2286 45.1828 46.4451 46.75 42.5 46.75C38.5549 46.75 34.7714 45.1828 31.9818 42.3932C29.1922 39.6036 27.625 35.8201 27.625 31.875ZM69.0965 63.682C65.9151 67.6839 61.8707 70.9153 57.2652 73.1349C52.6598 75.3544 47.6124 76.5048 42.5 76.5C37.3876 76.5048 32.3402 75.3544 27.7348 73.1349C23.1293 70.9153 19.0849 67.6839 15.9035 63.682C22.7928 58.7392 32.1938 55.25 42.5 55.25C52.8062 55.25 62.2072 58.7392 69.0965 63.682Z" fill="#065757"/>
</svg>
