<svg width="25" height="25" viewBox="0 0 25 25" fill="none" xmlns="http://www.w3.org/2000/svg">
<g id="ic:baseline-share">
<path id="Vector" d="M16.4568 17.9844L16.7726 18.1682L17.0436 17.9232C17.5029 17.508 18.0945 17.2502 18.75 17.2502C20.1509 17.2502 21.2917 18.3909 21.2917 19.7918C21.2917 21.1928 20.1509 22.3335 18.75 22.3335C17.3491 22.3335 16.2083 21.1928 16.2083 19.7918C16.2083 19.6074 16.2336 19.4174 16.2781 19.2306L16.3639 18.87L16.0439 18.683L8.62724 14.3497L8.30724 14.1627L8.0353 14.4145C7.55812 14.8564 6.93761 15.1252 6.25 15.1252C4.79698 15.1252 3.625 13.9532 3.625 12.5002C3.625 11.0471 4.79698 9.87516 6.25 9.87516C6.93761 9.87516 7.55812 10.144 8.0353 10.5858L8.30696 10.8373L8.62682 10.6509L15.9706 6.36962L16.2845 6.18658L16.2073 5.83145C16.1576 5.6028 16.125 5.4046 16.125 5.2085C16.125 3.75547 17.297 2.5835 18.75 2.5835C20.203 2.5835 21.375 3.75547 21.375 5.2085C21.375 6.66152 20.203 7.8335 18.75 7.8335C18.0624 7.8335 17.4419 7.56469 16.9647 7.12287L16.693 6.87132L16.3732 7.05779L9.02943 11.339L8.71546 11.5221L8.79266 11.8772C8.84237 12.1059 8.875 12.3041 8.875 12.5002C8.875 12.6963 8.84237 12.8945 8.79266 13.1231L8.7154 13.4785L9.02973 13.6615L16.4568 17.9844Z" fill="white" stroke="black"/>
</g>
</svg>
