<svg width="40" height="41" viewBox="0 0 40 41" fill="none" xmlns="http://www.w3.org/2000/svg">
<g id="Facebook">
<path id="Vector" d="M35.3878 3.61035H5.19863C4.70384 3.61035 4.22931 3.80691 3.87944 4.15678C3.52956 4.50665 3.33301 4.98118 3.33301 5.47598V35.6652C3.33301 36.16 3.52956 36.6345 3.87944 36.9844C4.22931 37.3343 4.70384 37.5308 5.19863 37.5308H21.4465V24.3866H17.0369V19.2986H21.4465V15.4825C21.3552 14.5866 21.461 13.6816 21.7564 12.8308C22.0519 11.9801 22.5299 11.2044 23.1569 10.558C23.7839 9.91155 24.5448 9.41014 25.3861 9.08891C26.2274 8.76768 27.1288 8.6344 28.0271 8.69842C29.3472 8.6903 30.6666 8.75825 31.9788 8.90194V13.4812H29.2822C27.1452 13.4812 26.7381 14.4988 26.7381 15.9744V19.2477H31.8262L31.1647 24.3358H26.7381V37.5308H35.3878C35.6328 37.5308 35.8754 37.4826 36.1018 37.3888C36.3281 37.295 36.5338 37.1576 36.707 36.9844C36.8803 36.8111 37.0177 36.6055 37.1115 36.3791C37.2052 36.1528 37.2535 35.9102 37.2535 35.6652V5.47598C37.2535 5.23098 37.2052 4.98838 37.1115 4.76203C37.0177 4.53568 36.8803 4.33002 36.707 4.15678C36.5338 3.98354 36.3281 3.84612 36.1018 3.75236C35.8754 3.65861 35.6328 3.61035 35.3878 3.61035Z" fill="white"/>
</g>
</svg>
