<svg width="50" height="50" viewBox="0 0 50 50" fill="none" xmlns="http://www.w3.org/2000/svg">
<g id="iconamoon:history-bold">
<g id="Group">
<path id="Vector" d="M11.7417 38.2582C14.8093 41.3258 18.8457 43.2348 23.1631 43.6598C27.4805 44.0848 31.8117 42.9996 35.4186 40.589C39.0255 38.1784 41.6848 34.5917 42.9435 30.44C44.2022 26.2883 43.9822 21.8287 42.3212 17.821C40.6602 13.8133 37.6608 10.5056 33.8342 8.46162C30.0077 6.41761 25.5907 5.76376 21.3361 6.6115C17.0814 7.45924 13.2524 9.7561 10.5015 13.1107C7.75064 16.4652 6.24811 20.6699 6.25 25.0082V29.1665" stroke="black" stroke-width="4" stroke-linecap="round" stroke-linejoin="round"/>
<path id="Vector_2" d="M2.08301 24.9998L5.99976 30.4999L10.4163 24.9998M22.9163 16.6665V27.0832H33.333" stroke="black" stroke-width="3" stroke-linecap="round" stroke-linejoin="round"/>
</g>
</g>
</svg>
