<svg width="40" height="41" viewBox="0 0 40 41" fill="none" xmlns="http://www.w3.org/2000/svg">
<g id="Instagram">
<path id="Vector" d="M21.713 3.42871C23.588 3.43371 24.5397 3.44371 25.3613 3.46704L25.6847 3.47871C26.058 3.49204 26.4263 3.50871 26.8713 3.52871C28.6447 3.61204 29.8547 3.89204 30.9163 4.30371C32.0163 4.72704 32.943 5.30038 33.8697 6.22538C34.7171 7.05854 35.3729 8.06636 35.7913 9.17871C36.203 10.2404 36.483 11.4504 36.5663 13.2254C36.5863 13.6687 36.603 14.037 36.6163 14.412L36.6263 14.7354C36.6513 15.5554 36.6613 16.507 36.6647 18.382L36.6663 19.6254V21.8087C36.6704 23.0244 36.6576 24.2401 36.628 25.4554L36.618 25.7787C36.6047 26.1537 36.588 26.522 36.568 26.9654C36.4847 28.7404 36.2013 29.9487 35.7913 31.012C35.3741 32.125 34.7182 33.1331 33.8697 33.9654C33.0363 34.8126 32.0285 35.4683 30.9163 35.887C29.8547 36.2987 28.6447 36.5787 26.8713 36.662C26.4759 36.6807 26.0803 36.6973 25.6847 36.712L25.3613 36.722C24.5397 36.7454 23.588 36.757 21.713 36.7604L20.4697 36.762H18.288C17.0718 36.7662 15.8555 36.7535 14.6397 36.7237L14.3163 36.7137C13.9207 36.6987 13.5251 36.6815 13.1297 36.662C11.3563 36.5787 10.1463 36.2987 9.08299 35.887C7.97077 35.4693 6.96335 34.8135 6.13133 33.9654C5.28307 33.1325 4.6267 32.1246 4.20799 31.012C3.79633 29.9504 3.51633 28.7404 3.43299 26.9654C3.41442 26.5699 3.39776 26.1743 3.38299 25.7787L3.37466 25.4554C3.34395 24.2401 3.33006 23.0244 3.33299 21.8087V18.382C3.32834 17.1664 3.34056 15.9507 3.36966 14.7354L3.38133 14.412C3.39466 14.037 3.41133 13.6687 3.43133 13.2254C3.51466 11.4504 3.79466 10.242 4.20633 9.17871C4.62485 8.06522 5.28253 7.05708 6.13299 6.22538C6.96481 5.37783 7.97157 4.72202 9.08299 4.30371C10.1463 3.89204 11.3547 3.61204 13.1297 3.52871C13.573 3.50871 13.943 3.49204 14.3163 3.47871L14.6397 3.46871C15.855 3.4391 17.0707 3.42632 18.2863 3.43038L21.713 3.42871ZM19.9997 11.762C17.7895 11.762 15.6699 12.64 14.1071 14.2028C12.5443 15.7656 11.6663 17.8852 11.6663 20.0954C11.6663 22.3055 12.5443 24.4251 14.1071 25.9879C15.6699 27.5507 17.7895 28.4287 19.9997 28.4287C22.2098 28.4287 24.3294 27.5507 25.8922 25.9879C27.455 24.4251 28.333 22.3055 28.333 20.0954C28.333 17.8852 27.455 15.7656 25.8922 14.2028C24.3294 12.64 22.2098 11.762 19.9997 11.762ZM19.9997 15.0954C20.6563 15.0953 21.3065 15.2245 21.9131 15.4757C22.5198 15.7268 23.0711 16.095 23.5354 16.5593C23.9998 17.0235 24.3682 17.5746 24.6196 18.1812C24.8709 18.7878 25.0004 19.4379 25.0005 20.0945C25.0006 20.7512 24.8714 21.4014 24.6202 22.008C24.369 22.6147 24.0008 23.166 23.5366 23.6303C23.0724 24.0947 22.5213 24.4631 21.9147 24.7145C21.3081 24.9658 20.6579 25.0953 20.0013 25.0954C18.6752 25.0954 17.4035 24.5686 16.4658 23.6309C15.5281 22.6932 15.0013 21.4215 15.0013 20.0954C15.0013 18.7693 15.5281 17.4975 16.4658 16.5598C17.4035 15.6222 18.6752 15.0954 20.0013 15.0954M28.7513 9.26204C28.1988 9.26204 27.6689 9.48154 27.2782 9.87224C26.8875 10.2629 26.668 10.7928 26.668 11.3454C26.668 11.8979 26.8875 12.4278 27.2782 12.8185C27.6689 13.2092 28.1988 13.4287 28.7513 13.4287C29.3039 13.4287 29.8338 13.2092 30.2245 12.8185C30.6152 12.4278 30.8347 11.8979 30.8347 11.3454C30.8347 10.7928 30.6152 10.2629 30.2245 9.87224C29.8338 9.48154 29.3039 9.26204 28.7513 9.26204Z" fill="white"/>
</g>
</svg>
