<svg width="35" height="35" viewBox="0 0 35 35" fill="none" xmlns="http://www.w3.org/2000/svg">
<g id="video_15047576 1">
<path id="Vector" d="M20.3889 0.820312C20.862 0.829245 21.3351 0.838289 21.8082 0.847407C21.9686 0.850484 22.129 0.853538 22.2893 0.856565C23.5248 0.879909 24.7595 0.91099 25.9944 0.957031C25.9961 1.03414 25.9979 1.11124 25.9997 1.19068C26.0681 3.32505 26.6927 5.30151 28.0451 6.97266C28.0973 7.04456 28.1495 7.11647 28.2032 7.19055C29.8135 8.87576 32.1381 9.12795 34.3342 9.29688C34.3342 11.2369 34.3342 13.177 34.3342 15.1758C31.3075 15.1758 28.598 14.6271 25.9944 13.0566C25.9945 13.1142 25.9947 13.1718 25.9949 13.2311C25.9995 14.6378 26.0029 16.0445 26.005 17.4512C26.006 18.1315 26.0075 18.8118 26.0098 19.4921C26.0119 20.0856 26.0132 20.6792 26.0137 21.2727C26.0139 21.5865 26.0145 21.9002 26.016 22.2139C26.0297 25.1691 26.0297 25.1691 25.597 26.579C25.5705 26.668 25.5705 26.668 25.5434 26.7589C25.0564 28.3576 24.2827 29.7586 23.1233 30.9668C23.0393 31.0572 23.0393 31.0572 22.9537 31.1494C21.3293 32.8482 19.0159 33.8483 16.6975 34.1113C16.6321 34.1189 16.5667 34.1265 16.4994 34.1343C14.4355 34.339 12.3439 33.9933 10.4768 33.0859C10.4062 33.0518 10.4062 33.0518 10.3343 33.017C7.90244 31.8215 6.17274 29.7103 5.27136 27.1775C5.01769 26.4131 4.83695 25.6131 4.7346 24.8145C4.72702 24.7588 4.71944 24.7032 4.71163 24.646C4.40342 21.9429 5.18165 19.2146 6.85816 17.0746C8.68845 14.8006 11.2758 13.2815 14.1964 12.9552C14.5755 12.9191 14.9539 12.9059 15.3346 12.9028C15.4119 12.9019 15.4119 12.9019 15.4907 12.9009C16.0426 12.9039 16.5485 12.9867 17.1076 13.0566C17.1076 14.9516 17.1076 16.8465 17.1076 18.7988C16.7016 18.6973 16.7016 18.6973 16.2873 18.5938C14.9697 18.3741 13.6111 18.6717 12.5019 19.4181C11.3349 20.2812 10.6153 21.3926 10.3614 22.8235C10.2191 24.3195 10.5704 25.682 11.5022 26.8652C11.8726 27.3061 12.3039 27.605 12.801 27.8906C12.8551 27.9223 12.9092 27.9541 12.965 27.9868C14.1823 28.65 15.6501 28.7325 16.9709 28.3691C18.2383 27.9445 19.2389 27.1038 19.842 25.9082C20.0964 25.3548 20.3285 24.8194 20.33 24.2042C20.3304 24.1208 20.3308 24.0374 20.3311 23.9514C20.3312 23.8588 20.3313 23.7661 20.3313 23.6734C20.3317 23.575 20.332 23.4766 20.3324 23.3783C20.3333 23.1077 20.3338 22.8371 20.3342 22.5664C20.3348 22.2747 20.3357 21.983 20.3366 21.6913C20.3381 21.1858 20.3393 20.6803 20.3404 20.1748C20.342 19.444 20.3439 18.7131 20.3459 17.9822C20.3492 16.7965 20.3521 15.6107 20.3549 14.425C20.3576 13.273 20.3604 12.121 20.3634 10.9691C20.3637 10.8626 20.3637 10.8626 20.364 10.754C20.3649 10.3979 20.3659 10.0417 20.3668 9.68564C20.3746 6.73053 20.3819 3.77542 20.3889 0.820312Z" fill="white"/>
</g>
</svg>
