<svg width="50" height="50" viewBox="0 0 50 50" fill="none" xmlns="http://www.w3.org/2000/svg">
<g id="Youtube">
<path id="Vector" fill-rule="evenodd" clip-rule="evenodd" d="M20.6982 30.4753V18.767L31.9545 24.642L20.6982 30.4753ZM45.417 16.7399C45.417 16.7399 45.0107 13.867 43.7607 12.6024C42.1774 10.9441 40.4003 10.9357 39.5857 10.8378C33.7566 10.417 25.0087 10.417 25.0087 10.417H24.992C24.992 10.417 16.2462 10.417 10.4149 10.8378C9.60033 10.9357 7.82533 10.942 6.23991 12.6024C4.98991 13.867 4.58366 16.7399 4.58366 16.7399C4.58366 16.7399 4.16699 20.1107 4.16699 23.4837V26.6441C4.16699 30.0149 4.58366 33.3878 4.58366 33.3878C4.58366 33.3878 4.98991 36.2587 6.23991 37.5232C7.82324 39.1837 9.90657 39.1295 10.8337 39.3045C14.167 39.6232 25.0003 39.7212 25.0003 39.7212C25.0003 39.7212 33.7566 39.7087 39.5857 39.2878C40.4003 39.1899 42.1774 39.1837 43.7607 37.5232C45.0107 36.2587 45.417 33.3878 45.417 33.3878C45.417 33.3878 45.8337 30.0149 45.8337 26.6441V23.4837C45.8337 20.1107 45.417 16.7399 45.417 16.7399Z" fill="white"/>
</g>
</svg>
